<svg height="512" viewBox="-48 0 384 384" width="512" xmlns="http://www.w3.org/2000/svg"><path d="M176 0h-64C76.71 0 48 28.71 48 64v80H32c-17.648 0-32 14.352-32 32v176c0 17.648 14.352 32 32 32h224c17.648 0 32-14.352 32-32V176c0-17.648-14.352-32-32-32h-16V64c0-35.29-28.71-64-64-64zM80 64c0-17.648 14.352-32 32-32h64c17.648 0 32 14.352 32 32v80H80zm176 288H32l-.016-176H256zm0 0"/><path d="M144 200c-26.473 0-48 21.527-48 48 0 20.855 13.383 38.594 32 45.2V312c0 8.832 7.168 16 16 16s16-7.168 16-16v-18.8c18.617-6.606 32-24.345 32-45.2 0-26.473-21.527-48-48-48zm0 64c-8.824 0-16-7.176-16-16s7.176-16 16-16 16 7.176 16 16-7.176 16-16 16zm0 0"/></svg>