<svg xmlns="http://www.w3.org/2000/svg" viewBox="0 0 511.999 511.999"><path d="M508.129 245.942c-1.155-1.278-28.809-31.661-73.431-62.307C375.034 142.659 313.241 121 255.999 121c-57.241 0-119.034 21.659-178.698 62.635-44.622 30.646-72.275 61.029-73.43 62.307-5.162 5.712-5.162 14.404 0 20.115 1.155 1.278 28.809 31.661 73.431 62.307C136.965 369.341 198.759 391 255.999 391c57.241 0 119.034-21.659 178.698-62.635 44.622-30.646 72.275-61.029 73.431-62.307 5.161-5.712 5.161-14.404.001-20.116zM145.484 333.44c-40.404-19.392-78.937-47.81-109.449-77.434 17.675-17.131 57.684-52.53 109.471-77.478C130.074 200.472 121 227.195 121 256c-.001 28.791 9.064 55.502 24.484 77.44zM255.999 361c-57.848 0-105-47.06-105-105 0-57.897 47.103-105 105-105 57.854 0 105 47.066 105 105 .001 57.897-47.102 105-105 105zm110.495-27.528C381.926 311.528 391 284.805 391 256c0-28.791-9.065-55.502-24.484-77.44 40.404 19.392 78.937 47.81 109.449 77.434-17.674 17.131-57.684 52.53-109.471 77.478z"/><path d="M255.999 181c-41.355 0-75 33.645-75 75s33.645 75 75 75 75-33.645 75-75c.001-41.355-33.644-75-75-75zm0 120c-24.813 0-45-20.187-45-45s20.187-45 45-45 45 20.187 45 45-20.186 45-45 45z"/></svg>